<svg version="1.1" xmlns="http://www.w3.org/2000/svg" style="display: block;" viewBox="0 0 1044 1028" width="261" height="257" preserveAspectRatio="none">
<path transform="translate(0,0)" fill="rgb(249,249,248)" d="M 0 0 L 1044 0 L 1044 1028 L 0 1028 L 0 0 z"/>
<path transform="translate(1044,0) scale(-1,1)" fill="rgb(0,0,0)" d="M 320.564 592.423 C 327.11 591.792 337.999 591.823 344.696 591.761 L 500.901 591.73 C 544.916 591.73 609.061 588.756 650.011 599.124 C 690.794 609.499 728.092 630.514 758.095 660.023 C 803.266 704.511 829.03 765.046 829.775 828.442 C 829.785 858.583 817.707 887.469 796.245 908.632 C 760.167 944.724 724.926 941.818 678.538 941.777 L 607.5 941.706 L 320.485 941.714 L 243.055 941.721 C 227.774 941.74 202.846 942.416 188.608 939.926 C 168.579 936.23 149.909 927.228 134.545 913.857 C 112.098 894.633 98.3367 867.181 96.3651 837.694 C 92.438 780.715 116.48 716.437 154.059 674.003 C 198.341 624 254.316 596.83 320.564 592.423 z"/>
<path transform="translate(1044,0) scale(-1,1)" fill="rgb(249,249,248)" d="M 323.744 643.426 C 326.895 643.032 334.286 642.938 337.777 642.933 C 386.142 642.86 434.533 643.009 482.897 642.962 L 554.753 642.895 C 582.276 642.878 606.45 641.616 633.548 648.121 C 666.758 656.226 697.163 673.153 721.548 697.111 C 757.192 731.786 777.617 779.191 778.338 828.914 C 778.446 845.913 773.153 861.136 761.135 873.421 C 740.318 894.701 707.263 890.362 679.965 890.347 L 603.5 890.295 L 324.179 890.264 L 241.869 890.344 C 215.828 890.359 188.303 894.175 167.359 876.283 C 151.609 862.828 146.301 844.743 146.986 824.916 C 149.458 753.329 194.275 687.579 259.885 658.967 C 281.78 649.371 299.872 645.508 323.744 643.426 z"/>
<path transform="translate(1044,0) scale(-1,1)" fill="rgb(0,0,0)" d="M 457.55 122.938 C 565.689 120.118 655.62 205.535 658.366 313.676 C 661.112 421.818 575.632 511.69 467.489 514.361 C 359.452 517.031 269.686 431.652 266.942 323.616 C 264.199 215.58 349.516 125.756 457.55 122.938 z"/>
<path transform="translate(1044,0) scale(-1,1)" fill="rgb(249,249,248)" d="M 446.884 174.268 C 526.594 165.564 598.276 223.107 607.016 302.813 C 615.755 382.52 558.246 454.228 478.543 463.004 C 398.789 471.785 327.025 414.23 318.28 334.472 C 309.534 254.715 367.122 182.977 446.884 174.268 z"/>
<path transform="translate(1044,0) scale(-1,1)" fill="rgb(0,0,0)" d="M 842.211 336.194 C 842.564 336.174 842.917 336.156 843.271 336.14 C 878.594 334.63 872.49 374.644 872.42 398.138 C 872.233 420.017 872.259 441.898 872.496 463.776 L 938.226 463.628 C 949.125 463.612 960.749 464.082 971.53 463.929 C 994.883 463.596 1010.18 489.018 992.152 506.925 C 988.595 510.507 984.065 512.966 979.123 513.997 C 970.676 515.729 948.145 515.105 938.556 515.069 L 872.274 514.973 C 871.824 535.872 875.478 612.95 869.731 626.653 C 866.179 635.122 859.402 639.295 851.209 642.607 C 850.286 642.666 849.363 642.709 848.439 642.737 C 841.187 642.923 834.176 640.125 829.045 634.997 C 817.849 624.017 820.943 596.041 820.983 580.797 C 821.11 558.884 821.111 536.971 820.985 515.058 C 787.84 514.616 754.729 515.588 721.497 514.843 C 706.705 514.512 694.279 505.249 693.179 489.666 C 692.414 478.826 703.072 466.682 713.836 465.019 C 727.611 462.89 742.188 463.629 756.269 463.657 C 777.854 463.784 799.439 463.76 821.024 463.587 C 821.177 444.081 818.288 363.157 823.807 351.134 C 827.512 343.061 834.241 339.269 842.211 336.194 z"/>
</svg>
