<svg version="1.1" xmlns="http://www.w3.org/2000/svg" style="display: block;" viewBox="0 0 2048 1796" width="1339" height="1174" preserveAspectRatio="none">
<path transform="translate(0,0)" fill="rgb(255,255,255)" d="M 0 0 L 2048 0 L 2048 1796 L 0 1796 L 0 0 z"/>
<path transform="translate(0,0)" fill="rgb(0,0,0)" d="M 1372.15 740.263 C 1398.91 738.991 1416.32 757.558 1416.25 783.786 C 1416.11 840.606 1416.17 897.441 1416.25 954.261 C 1416.29 979.648 1416.96 1002.56 1410.81 1027.57 C 1402.44 1061.85 1384.93 1093.22 1360.15 1118.35 C 1333.17 1145.68 1298.94 1164.7 1261.49 1173.18 C 1234.63 1179.28 1182.72 1177.49 1153.43 1177.5 L 993.047 1177.64 L 1034.41 1218.57 C 1049.45 1233.46 1070.18 1249.36 1070.34 1272.23 C 1070.43 1282.85 1066.31 1293.07 1058.87 1300.64 C 1050.94 1308.73 1040.04 1313.21 1028.72 1313.02 C 1003.67 1312.77 983.479 1285.21 966.795 1268.33 L 883.465 1184.05 C 869.978 1170.49 853.443 1158.31 852.727 1138.15 C 852.138 1126.54 855.73 1114.96 863.844 1106.43 C 901.148 1067.23 939.601 1029.16 977.277 990.322 C 987.647 979.631 998.546 967.6 1010.64 958.889 C 1015.05 955.708 1024.01 954.26 1029.43 953.961 C 1040.62 953.346 1051.51 957.121 1059.69 964.849 C 1067.39 972.145 1071.82 982.238 1071.98 992.844 C 1072.14 1000.77 1070.17 1008.59 1066.27 1015.49 C 1061.85 1023.22 1041.42 1042.92 1034.31 1050.16 L 989.861 1095.9 L 1151.06 1095.93 C 1201.74 1095.95 1252.39 1104.16 1293.38 1068.7 C 1342.88 1025.87 1334.66 974.059 1334.6 915.694 L 1334.6 814.317 C 1334.39 780.857 1328.84 747.469 1372.15 740.263 z"/>
<path transform="translate(0,0)" fill="rgb(0,0,0)" d="M 1092.16 419.402 C 1117.39 420.292 1130.23 438.611 1146.83 455.407 L 1191.16 500.191 L 1237.24 546.186 C 1254.23 563.141 1274.73 578.008 1271.49 604.328 C 1268.91 625.239 1250.54 638.59 1236.38 652.792 L 1185.08 704.288 L 1141.12 748.393 C 1127 762.553 1116.73 777.502 1095.51 778.771 C 1084.2 779.52 1073.09 775.557 1064.81 767.824 C 1057.17 760.503 1052.83 750.408 1052.76 739.834 C 1052.37 716.387 1073.52 700.12 1088.72 684.672 L 1133.53 639.005 C 1082.16 638.132 1029.36 639.41 977.825 638.933 C 957.826 638.748 900.683 637.635 883.606 640.797 C 864.769 644.401 847.115 652.603 832.213 664.676 C 806.582 685.212 792.777 712.837 789.175 745.133 C 786.741 808.365 791.318 885.134 788.291 948.117 C 786.267 990.241 707.698 1002.92 707.421 935.284 L 707.603 820.195 C 707.565 796.406 706.324 756.092 708.658 733.174 C 713.609 688.038 733.939 645.981 766.235 614.063 C 791.615 588.884 823.406 571.136 858.158 562.744 C 891.122 554.749 949.662 557.526 986.21 557.551 L 1132.21 557.356 L 1083.85 509.05 C 1071.54 496.729 1054.87 483.916 1053.2 465.471 C 1050.81 439.143 1066.17 421.889 1092.16 419.402 z"/>
</svg>