<svg version="1.1" xmlns="http://www.w3.org/2000/svg" style="display: block;" viewBox="0 0 2048 1365" width="1536" height="1024" preserveAspectRatio="none">
<path transform="translate(0,0)" fill="rgb(255,255,255)" d="M 0 0 L 2048 0 L 2048 1365 L 0 1365 L 0 0 z"/>
<path transform="translate(0,0)" fill="rgb(0,0,0)" d="M 824.529 385.392 C 851.786 384.268 883.952 385.073 911.474 385.071 L 1073.26 385.082 L 1174.66 385.023 C 1208.75 384.982 1243.24 381.162 1273.89 398.902 C 1297.32 412.371 1314.42 434.61 1321.42 460.709 C 1333.27 506.028 1315.07 532.668 1293.24 569.341 L 1260.18 624.914 L 1131.81 840.478 C 1108.43 880.672 1091 924.619 1040.75 935.733 C 1016.49 941.224 991.032 936.789 970.053 923.414 C 936.839 902.161 932.441 874.274 922.912 839.44 L 906.342 778.342 C 897.99 747.179 886.703 710.374 880 679.484 L 796.694 597.831 C 782.527 583.949 755.357 558.961 745.282 543.818 C 735.739 529.561 729.879 513.162 728.225 496.086 C 725.982 469.051 734.618 442.237 752.219 421.594 C 771.046 399.218 795.859 388.005 824.529 385.392 z"/>
<path transform="translate(0,0)" fill="rgb(255,255,255)" d="M 828.944 437.446 L 1090.13 437.409 L 1177.75 437.355 C 1194.97 437.349 1212.52 437.096 1229.72 437.973 C 1237.12 438.35 1240.44 439.693 1246.9 442.878 C 1259.33 449.003 1268.53 459.671 1272.14 473.236 C 1276.84 490.871 1274.03 501.289 1265.19 516.476 C 1251.25 540.415 1237.02 564.094 1222.94 587.875 L 1127.44 748.578 L 1078.39 831.62 C 1071.15 843.887 1063.65 858.037 1055.57 869.615 C 1043.67 886.655 1016.93 891.014 999.509 880.961 C 992.969 877.194 987.595 871.695 983.98 865.069 C 978.579 855.357 967.47 808.883 964.001 795.532 C 961.408 788.539 956.612 767.979 954.419 759.831 L 932.947 679.46 L 1080.08 591.728 L 1122.12 566.544 C 1134.27 559.238 1149.78 552.974 1154.21 539.021 C 1160.85 518.128 1138.3 498.701 1119.08 508.753 C 1097.69 519.938 1077.26 533.347 1056.49 545.679 L 907.665 634.442 C 872.586 603.901 839.764 565.879 805.123 534.37 C 800.052 529.756 790.395 520.087 787.024 514.342 C 766.264 478.964 787.545 440.104 828.944 437.446 z"/>
</svg>