<svg version="1.1" xmlns="http://www.w3.org/2000/svg" style="display: block;" viewBox="0 0 1056 1196" width="264" height="299" preserveAspectRatio="none">
<path transform="translate(0,0)" fill="rgb(249,249,248)" d="M 0 0 L 1056 0 L 1056 1196 L 0 1196 L 0 0 z"/>
<path transform="translate(0,0)" fill="rgb(0,0,0)" d="M 523.524 112.449 C 601.347 109.455 689.934 125.603 759.94 159.763 C 851.582 204.481 916.782 278.826 955.825 372.385 C 964.819 393.939 970.141 413.492 977.593 435.117 C 970.267 436.4 956.138 440.671 948.289 442.828 L 889.764 459.237 L 889.576 458.202 C 887.502 447.301 880.75 428.675 876.594 417.849 C 852.682 355.558 815.02 301.297 759.133 263.209 C 670.693 202.934 548.756 192.23 445.693 210.824 C 363.477 225.656 289.878 267.467 242.445 337.98 C 165.957 451.685 157.471 620.927 180.837 751.86 C 197.131 843.16 240.05 933.733 319.051 986.813 C 407.717 1046.39 527.562 1055.09 630.588 1037.02 C 699.951 1024.86 771.801 983.747 811.497 924.704 C 839.15 884.114 849.404 834.144 839.97 785.945 C 829.795 735.159 801.967 706.613 760.618 679.108 C 759.487 684.068 758.452 689.795 757.592 694.807 C 742.219 784.385 693.715 860.885 602.051 886.147 C 501.369 913.895 369.358 879.743 338.063 768.535 C 326.025 725.755 333.111 681.458 354.928 643.314 C 368.945 620.515 387.988 601.221 410.603 586.908 C 472.037 547.205 549.618 543.742 620.705 548.191 C 634.875 549.078 656.965 551.088 670.631 554.022 C 666.276 517.326 647.023 477.225 613.703 458.533 C 557.429 426.964 455.732 436.695 421.412 497.261 C 396.766 481.951 369.727 462.883 345.411 446.537 C 350.407 441.242 355.941 433.512 360.723 427.576 C 434.968 335.42 597.332 325.206 687.002 399.395 C 741.481 444.469 758.806 512.112 764.432 580.523 C 797.306 593.644 829.973 614.266 855.608 638.177 C 963.576 738.88 956.182 907.262 857.514 1011.61 C 774.318 1099.59 674.559 1131.98 555.991 1135.31 C 433.799 1138.74 313.033 1110.78 222.149 1025 C 119.92 929.028 82.6203 782.181 79.1566 646.518 C 76.6744 501.785 104.684 346.573 207.392 237.757 C 292.179 147.926 403.487 116.251 523.524 112.449 z"/>
<path transform="translate(0,0)" fill="rgb(249,249,248)" d="M 564.509 637.433 C 602.525 635.779 636.213 639.911 673.365 646.439 C 663.033 736.594 635.387 803.436 533.287 805.031 C 486.307 805.487 425.118 783.898 422.665 728.765 C 421.916 710.03 428.696 691.776 441.495 678.073 C 471.805 645.003 522.468 639.114 564.509 637.433 z"/>
</svg>